<svg width="20" height="24" viewBox="0 0 20 24" fill="none" xmlns="http://www.w3.org/2000/svg">
<path d="M0.572222 23.8634C0.745764 23.9577 0.941881 24.0048 1.1402 23.9996C1.33852 23.9944 1.53182 23.9372 1.7 23.8339L10 18.7405L18.3 23.8339C18.4682 23.9371 18.6615 23.9942 18.8597 23.9993C19.058 24.0045 19.254 23.9574 19.4275 23.863C19.601 23.7686 19.7456 23.6303 19.8462 23.4625C19.9469 23.2947 20 23.1036 20 22.9088V3.27269C20 2.40472 19.6488 1.5723 19.0237 0.958548C18.3986 0.3448 17.5507 0 16.6667 0H3.33333C2.44928 0 1.60143 0.3448 0.976311 0.958548C0.35119 1.5723 1.31144e-07 2.40472 1.31144e-07 3.27269V22.9088C-9.62388e-05 23.1036 0.0529215 23.2948 0.153547 23.4627C0.254173 23.6305 0.398736 23.7689 0.572222 23.8634ZM2.22222 3.27269C2.22222 2.98337 2.33929 2.70589 2.54766 2.50131C2.75603 2.29673 3.03865 2.18179 3.33333 2.18179H16.6667C16.9614 2.18179 17.244 2.29673 17.4523 2.50131C17.6607 2.70589 17.7778 2.98337 17.7778 3.27269V20.9452L10.5889 16.5336C10.4123 16.4253 10.2082 16.3678 10 16.3678C9.79175 16.3678 9.5877 16.4253 9.41111 16.5336L2.22222 20.9452V3.27269Z" fill="#019FCC"/>
<path d="M2.22222 3.27269C2.22222 2.98337 2.33929 2.70589 2.54766 2.50131C2.75603 2.29673 3.03865 2.18179 3.33333 2.18179H16.6667C16.9614 2.18179 17.244 2.29673 17.4523 2.50131C17.6607 2.70589 17.7778 2.98337 17.7778 3.27269V20.9452L10.5889 16.5336C10.4123 16.4253 10.2082 16.3678 10 16.3678C9.79175 16.3678 9.5877 16.4253 9.41111 16.5336L2.22222 20.9452V3.27269Z" fill="#019FCC"/>
</svg>
