<svg width="24" height="24" viewBox="0 0 24 24" fill="none" xmlns="http://www.w3.org/2000/svg">
<path d="M8.99844 18.6481C8.83931 18.6481 8.68669 18.7107 8.57417 18.8223C8.46165 18.9338 8.39844 19.085 8.39844 19.2428C8.39844 19.4005 8.46165 19.5518 8.57417 19.6633C8.68669 19.7748 8.83931 19.8375 8.99844 19.8375H14.9984C15.1576 19.8375 15.3102 19.7748 15.4227 19.6633C15.5352 19.5518 15.5984 19.4005 15.5984 19.2428C15.5984 19.085 15.5352 18.9338 15.4227 18.8223C15.3102 18.7107 15.1576 18.6481 14.9984 18.6481H8.99844Z" fill="black"/>
<path fill-rule="evenodd" clip-rule="evenodd" d="M14.6028 0.895748C13.8615 0.315571 12.9445 0 12 0C11.0555 0 10.1385 0.315571 9.3972 0.895748L1.5972 6.99979C1.0993 7.38947 0.696933 7.88588 0.420306 8.45177C0.143679 9.01765 -1.88038e-05 9.63829 1.84557e-09 10.2671V19.8371C1.84557e-09 20.9411 0.442499 22 1.23015 22.7807C2.0178 23.5614 3.08609 24 4.2 24H19.8C20.9139 24 21.9822 23.5614 22.7698 22.7807C23.5575 22 24 20.9411 24 19.8371V10.2671C24 9.63829 23.8563 9.01765 23.5797 8.45177C23.3031 7.88588 22.9007 7.38947 22.4028 6.99979L14.6028 0.895748ZM10.1412 1.82943C10.6706 1.41519 11.3255 1.18988 12 1.18988C12.6745 1.18988 13.3294 1.41519 13.8588 1.82943L21.6588 7.93348C22.0145 8.21177 22.3019 8.56631 22.4996 8.97048C22.6972 9.37465 22.7999 9.81795 22.8 10.2671V19.8371C22.8 20.6257 22.4839 21.382 21.9213 21.9397C21.3587 22.4973 20.5956 22.8106 19.8 22.8106H4.2C3.40435 22.8106 2.64129 22.4973 2.07868 21.9397C1.51607 21.382 1.2 20.6257 1.2 19.8371V10.2671C1.19991 9.81804 1.30243 9.37481 1.49987 8.97064C1.69731 8.56648 1.98454 8.21189 2.34 7.93348L10.1412 1.82943Z" fill="black"/>
</svg>
