<svg width="15" height="24" viewBox="0 0 15 24" fill="none" xmlns="http://www.w3.org/2000/svg">
<path d="M0.345626 14.7148L0.599896 14.2842C0.568587 14.2658 0.542811 14.2392 0.525256 14.2074L0.0873793 14.4487L0.525255 14.2074C0.507701 14.1755 0.49901 14.1395 0.50009 14.1032C0.501169 14.0668 0.51198 14.0315 0.531395 14.0007L0.531784 14.0001L8.96887 0.594497C8.96895 0.594361 8.96904 0.594225 8.96912 0.594089C9.02228 0.51037 9.13022 0.477393 9.22052 0.516256L9.22074 0.516353C9.31245 0.555771 9.3624 0.655739 9.33778 0.754005L0.345626 14.7148ZM0.345626 14.7148L0.599899 14.2842C0.631206 14.3027 0.666902 14.3125 0.703274 14.3125H6.33446H6.97608L6.81931 14.9347L4.72508 23.2458C4.70036 23.3441 4.75011 23.4439 4.84158 23.4835C4.9343 23.5228 5.0403 23.4897 5.09391 23.4056C5.09401 23.4054 5.09412 23.4052 5.09422 23.4051L13.531 9.99994L13.5314 9.99932C13.5508 9.96858 13.5616 9.93318 13.5627 9.89684C13.5638 9.86049 13.5551 9.82452 13.5375 9.79267C13.52 9.76083 13.4942 9.73428 13.4629 9.71578C13.4316 9.69729 13.3959 9.68754 13.3595 9.68754H7.72834H7.08672L7.2435 9.06537L9.33773 0.754192L0.345626 14.7148Z" stroke="black"/>
</svg>
