<svg width="15" height="24" viewBox="0 0 15 24" fill="none" xmlns="http://www.w3.org/2000/svg">
<path d="M4.64462 23.943C4.9621 24.0787 5.33124 23.9654 5.51668 23.6725L13.9542 10.2663C14.0214 10.1599 14.0588 10.0374 14.0625 9.91168C14.0662 9.78593 14.0362 9.66147 13.9754 9.55129C13.9147 9.44111 13.8255 9.34925 13.7172 9.28526C13.6088 9.22128 13.4853 9.18754 13.3595 9.18754H7.72834L9.82262 0.876175C9.90709 0.54041 9.73609 0.193628 9.41818 0.0569877C9.10234 -0.0789499 8.73085 0.0350033 8.54612 0.327503L0.108618 13.7338C0.0414483 13.8401 0.00404576 13.9626 0.000310147 14.0883C-0.00342547 14.2141 0.0266424 14.3386 0.0873793 14.4487C0.148116 14.5589 0.237298 14.6508 0.345626 14.7148C0.453955 14.7787 0.577463 14.8125 0.703274 14.8125H6.33446L4.24018 23.1239C4.15571 23.4597 4.32667 23.8064 4.64462 23.943Z" fill="#019FCC"/>
</svg>
